<svg width="10" height="16" viewBox="0 0 10 16" fill="none" xmlns="http://www.w3.org/2000/svg">
<path d="M7.60666 15.7702L0.190167 8.43864C0.119734 8.36901 0.0704321 8.29939 0.0422592 8.22976C0.0140864 8.16014 0 8.08355 0 8C0 7.91645 0.0140864 7.83986 0.0422592 7.77023C0.0704321 7.70061 0.119734 7.63098 0.190167 7.56136L7.60666 0.229765C7.76161 0.0765884 7.95882 0 8.19829 0C8.43776 0 8.63497 0.0765884 8.78992 0.229765C8.95896 0.396867 9.04348 0.5953 9.04348 0.825065C9.04348 1.05483 8.95896 1.25326 8.78992 1.42037L2.13409 8L8.78992 14.5796C8.95896 14.7467 9.03996 14.9452 9.03291 15.1749C9.02587 15.4047 8.94487 15.5962 8.78992 15.7493C8.62089 15.9164 8.42015 16 8.18773 16C7.9553 16 7.76161 15.9234 7.60666 15.7702Z" fill="#121926"/>
</svg>
