<svg width="14" height="15" viewBox="0 0 14 15" fill="none" xmlns="http://www.w3.org/2000/svg">
<path d="M0.898444 8.58446L10.9341 8.58446L6.54966 13.0866C6.19926 13.4464 6.19926 14.0368 6.54965 14.3967C6.90005 14.7565 7.46607 14.7565 7.81646 14.3967L13.7372 8.31692C14.0876 7.95711 14.0876 7.3759 13.7372 7.01609L7.81646 0.936356C7.46607 0.576554 6.90005 0.576554 6.54966 0.936356C6.19926 1.29616 6.19926 1.87738 6.54966 2.23718L10.9341 6.73932L0.898444 6.73932C0.4043 6.73932 6.56722e-07 7.15448 6.12363e-07 7.66189C5.68003e-07 8.1693 0.4043 8.58446 0.898444 8.58446Z" fill="white"/>
</svg>
